<?xml version="1.0" standalone="no"?> <!DOCTYPE svg PUBLIC "-//W3C//DTD SVG 20010904//EN" "http://www.w3.org/TR/2001/REC-SVG-20010904/DTD/svg10.dtd"> <svg version="1.0" xmlns="http://www.w3.org/2000/svg" width="388.000000pt" height="98.000000pt" viewBox="0 0 388.000000 98.000000" preserveAspectRatio="xMidYMid meet"> <g transform="translate(0.000000,98.000000) scale(0.100000,-0.100000)" fill="#ffffff" stroke="none"> <path d="M42 944 c-43 -30 -14 -94 43 -94 12 0 30 -6 41 -14 18 -14 19 -33 24 -386 l5 -372 24 -19 c33 -27 111 -26 137 2 18 20 20 47 27 387 6 291 10 369 21 380 8 8 35 17 60 19 53 6 69 21 64 60 -5 46 -33 53 -238 53 -152 0 -190 -3 -208 -16z"/> <path d="M1833 946 c-101 -33 -160 -86 -183 -163 -25 -82 3 -143 157 -347 138 -183 156 -228 102 -257 -45 -24 -82 24 -95 122 -8 63 -31 89 -79 89 -86 0 -116 -47 -96 -151 27 -147 95 -213 221 -213 141 0 270 99 270 208 0 84 -38 153 -174 315 -89 107 -126 165 -126 200 0 25 36 51 72 51 22 0 32 -9 54 -47 49 -87 70 -98 129 -71 52 24 57 136 7 203 -45 61 -169 91 -259 61z"/> <path d="M2593 930 c-65 -39 -68 -57 -67 -335 0 -197 4 -268 18 -335 35 -172 94 -230 234 -230 95 0 144 15 194 59 32 29 43 49 59 106 25 89 41 350 32 538 -5 118 -9 143 -27 170 -27 41 -73 48 -102 16 -18 -19 -19 -43 -26 -313 -6 -302 -16 -375 -54 -417 -21 -23 -47 -24 -64 -4 -20 24 -31 166 -34 430 -2 209 -5 245 -21 278 -28 58 -84 73 -142 37z"/> <path d="M3220 594 c-47 -20 -77 -50 -90 -90 -10 -29 -8 -41 13 -86 13 -29 54 -90 89 -135 71 -88 88 -128 65 -150 -24 -24 -47 -4 -64 57 -18 67 -46 84 -89 55 -30 -19 -32 -72 -5 -130 25 -55 52 -76 105 -82 88 -10 187 61 186 134 -1 36 -39 103 -110 190 -79 98 -93 129 -65 150 29 21 44 16 66 -22 30 -51 51 -59 83 -34 29 23 32 45 12 94 -26 60 -117 83 -196 49z"/> <path d="M480 563 c-51 -52 -73 -129 -73 -258 0 -86 3 -108 25 -156 41 -90 112 -130 194 -108 99 27 151 147 142 322 -4 74 -8 91 -39 142 -42 71 -82 95 -158 95 -48 0 -57 -3 -91 -37z m185 -94 c33 -56 23 -247 -17 -326 -18 -36 -53 -29 -74 15 -16 31 -19 60 -18 172 0 132 8 173 38 192 16 10 48 -14 71 -53z"/> <path d="M1324 591 c-67 -29 -106 -133 -106 -280 0 -156 46 -245 140 -270 136 -37 232 102 221 321 -5 87 -43 175 -91 210 -35 24 -127 35 -164 19z m124 -83 c32 -35 43 -74 43 -162 0 -140 -27 -226 -72 -226 -35 0 -52 60 -53 190 -1 127 7 182 30 205 20 20 27 19 52 -7z"/> <path d="M2215 575 l-25 -24 0 -231 0 -231 25 -24 c22 -22 32 -25 105 -25 77 0 117 10 132 34 12 18 -2 26 -48 26 -68 0 -84 12 -84 64 0 48 9 56 65 56 18 0 39 7 46 16 11 14 10 18 -6 30 -10 8 -36 14 -56 14 -53 0 -69 26 -69 110 1 77 13 140 32 151 7 5 30 9 50 9 20 0 40 5 44 12 14 23 -29 38 -108 38 -70 0 -82 -3 -103 -25z"/> <path d="M860 572 c-25 -20 -25 -21 -28 -219 -4 -228 1 -276 31 -303 70 -66 234 34 273 166 20 70 15 183 -11 234 -39 77 -105 124 -191 135 -41 6 -54 3 -74 -13z m149 -102 c26 -47 41 -160 31 -242 -7 -64 -36 -113 -66 -113 -18 0 -19 11 -22 190 -1 104 0 195 2 202 8 21 31 5 55 -37z"/> <path d="M3608 565 c-12 -14 -28 -47 -35 -73 -43 -154 -75 -316 -77 -377 -1 -70 -1 -70 27 -73 36 -4 54 11 63 51 3 18 13 44 20 60 12 23 21 27 55 27 49 0 79 -15 79 -39 0 -44 23 -83 57 -98 32 -13 37 -13 55 4 15 13 18 26 14 48 -3 16 -14 86 -26 155 -35 211 -67 307 -109 330 -11 5 -38 10 -60 10 -32 0 -46 -6 -63 -25z m82 -108 c0 -12 7 -54 15 -92 8 -39 15 -75 15 -82 0 -36 -81 -60 -93 -28 -7 18 20 190 34 216 12 24 29 16 29 -14z"/> </g> </svg>